<svg width="58" height="24" viewBox="0 0 58 24" fill="none" xmlns="http://www.w3.org/2000/svg">
<g clip-path="url(#clip0_850_3359)">
<path d="M10.6043 3.0942C9.92461 3.90485 8.83711 4.54424 7.74961 4.4529C7.61367 3.3568 8.14609 2.1922 8.76914 1.47288C9.44882 0.639391 10.6383 0.0456708 11.6012 0C11.7144 1.14177 11.2727 2.2607 10.6043 3.0942ZM11.5898 4.66984C10.0152 4.5785 8.66718 5.57184 7.91953 5.57184C7.16054 5.57184 6.0164 4.71551 4.77031 4.73834C3.15039 4.76118 1.64375 5.68601 0.816793 7.1589C-0.882426 10.1047 0.374996 14.4662 2.01757 16.8639C2.82187 18.0514 3.78476 19.353 5.05351 19.3073C6.25429 19.2617 6.73007 18.5195 8.18007 18.5195C9.6414 18.5195 10.0605 19.3073 11.3293 19.2845C12.6434 19.2617 13.4703 18.0971 14.2746 16.9096C15.1922 15.5623 15.566 14.2493 15.5887 14.1808C15.566 14.1579 13.0512 13.1874 13.0285 10.2645C13.0059 7.82112 15.0109 6.65652 15.1016 6.58801C13.9687 4.89819 12.2016 4.71551 11.5898 4.66984ZM20.6863 1.35871V19.1589H23.4277V13.0733H27.2227C30.6891 13.0733 33.1246 10.6755 33.1246 7.20457C33.1246 3.73359 30.7344 1.35871 27.3133 1.35871H20.6863ZM23.4277 3.68792H26.5883C28.9672 3.68792 30.3266 4.9667 30.3266 7.21598C30.3266 9.46527 28.9672 10.7555 26.577 10.7555H23.4277V3.68792ZM38.1316 19.2959C39.8535 19.2959 41.4508 18.4167 42.1758 17.0238H42.2324V19.1589H44.7699V10.2988C44.7699 7.72978 42.7309 6.07421 39.593 6.07421C36.6816 6.07421 34.5293 7.75262 34.45 10.059H36.9195C37.1234 8.96289 38.1316 8.24358 39.5137 8.24358C41.1902 8.24358 42.1305 9.0314 42.1305 10.4814V11.4634L38.7094 11.6689C35.5262 11.863 33.8043 13.176 33.8043 15.4596C33.8043 17.7659 35.5828 19.2959 38.1316 19.2959ZM38.868 17.1836C37.4066 17.1836 36.4777 16.4757 36.4777 15.3911C36.4777 14.2721 37.3727 13.6213 39.0832 13.5186L42.1305 13.3245V14.3292C42.1305 15.9962 40.7258 17.1836 38.868 17.1836ZM48.157 24C50.8305 24 52.0879 22.9724 53.1867 19.8554L58.0012 6.24548H55.2144L51.9859 16.7612H51.9293L48.7008 6.24548H45.8348L50.4793 19.2046L50.2301 19.9924C49.8109 21.3283 49.1312 21.8421 47.9191 21.8421C47.7039 21.8421 47.2848 21.8192 47.1148 21.7964V23.9315C47.2734 23.9772 47.9531 24 48.157 24Z" fill="black"/>
</g>
<defs>
<clipPath id="clip0_850_3359">
<rect width="58" height="24" fill="white"/>
</clipPath>
</defs>
</svg>
