<svg width="50" height="24" viewBox="0 0 50 24" fill="none" xmlns="http://www.w3.org/2000/svg">
<g clip-path="url(#clip0_850_3351)">
<path d="M23.625 12.4112V18.2694H21.75V3.78125H26.625C27.8125 3.78125 28.9375 4.22219 29.8125 5.04109C30.6875 5.797 31.125 6.93086 31.125 8.12771C31.125 9.32456 30.6875 10.3954 29.8125 11.2143C28.9375 12.0332 27.875 12.4742 26.625 12.4742L23.625 12.4112ZM23.625 5.54503V10.5844H26.75C27.4375 10.5844 28.125 10.3324 28.5625 9.8285C29.5625 8.88361 29.5625 7.30881 28.625 6.36393L28.5625 6.30094C28.0625 5.797 27.4375 5.48204 26.75 5.54503H23.625Z" fill="#5F6368"/>
<path d="M35.4375 8.0625C36.8125 8.0625 37.875 8.44045 38.6875 9.19636C39.5 9.95226 39.875 10.9601 39.875 12.22V18.2672H38.125V16.8814H38.0625C37.3125 18.0153 36.25 18.5822 35 18.5822C33.9375 18.5822 33 18.2672 32.25 17.6373C31.5625 17.0074 31.125 16.1255 31.125 15.1806C31.125 14.1727 31.5 13.3538 32.25 12.7239C33 12.094 34.0625 11.842 35.3125 11.842C36.4375 11.842 37.3125 12.031 38 12.4719V12.031C38 11.4011 37.75 10.7712 37.25 10.3932C36.75 9.95226 36.125 9.70029 35.4375 9.70029C34.375 9.70029 33.5625 10.1412 33 11.0231L31.375 10.0153C32.375 8.69242 33.6875 8.0625 35.4375 8.0625ZM33.0625 15.2436C33.0625 15.7475 33.3125 16.1885 33.6875 16.4405C34.125 16.7554 34.625 16.9444 35.125 16.9444C35.875 16.9444 36.625 16.6294 37.1875 16.0625C37.8125 15.4956 38.125 14.8027 38.125 14.0468C37.5625 13.6058 36.75 13.3538 35.6875 13.3538C34.9375 13.3538 34.3125 13.5428 33.8125 13.9208C33.3125 14.2357 33.0625 14.6767 33.0625 15.2436Z" fill="#5F6368"/>
<path d="M50 8.37891L43.8125 22.6781H41.9375L44.25 17.7017L40.1875 8.4419H42.1875L45.125 15.56H45.1875L48.0625 8.4419H50V8.37891Z" fill="#5F6368"/>
<path d="M16.1875 11.15C16.1875 10.5831 16.125 10.0161 16.0625 9.44922H8.25V12.6618H12.6875C12.5 13.6697 11.9375 14.6146 11.0625 15.1815V17.2602H13.75C15.3125 15.8114 16.1875 13.6697 16.1875 11.15Z" fill="#4285F4"/>
<path d="M8.25 19.2753C10.5 19.2753 12.375 18.5194 13.75 17.2596L11.0625 15.1808C10.3125 15.6848 9.375 15.9997 8.25 15.9997C6.125 15.9997 4.25 14.5509 3.625 12.5352H0.875V14.6769C2.3125 17.5115 5.125 19.2753 8.25 19.2753Z" fill="#34A853"/>
<path d="M3.625 12.534C3.25 11.5261 3.25 10.3923 3.625 9.32142V7.17969H0.875C-0.3125 9.5104 -0.3125 12.2821 0.875 14.6758L3.625 12.534Z" fill="#FBBC04"/>
<path d="M8.25 5.9196C9.4375 5.9196 10.5625 6.36055 11.4375 7.17945L13.8125 4.78575C12.3125 3.39992 10.3125 2.58102 8.3125 2.64401C5.1875 2.64401 2.3125 4.40779 0.9375 7.24244L3.6875 9.38417C4.25 7.36842 6.125 5.9196 8.25 5.9196Z" fill="#EA4335"/>
</g>
<defs>
<clipPath id="clip0_850_3351">
<rect width="50" height="24" fill="white"/>
</clipPath>
</defs>
</svg>
