<svg width="25" height="22" viewBox="0 0 25 22" fill="none" xmlns="http://www.w3.org/2000/svg">
<path d="M22.0173 11.4445L12.0173 21.3485L2.01733 11.4445C1.35774 10.8027 0.838185 10.0312 0.491392 9.17872C0.144599 8.32622 -0.0219226 7.41114 0.00231183 6.49112C0.0265463 5.5711 0.241012 4.66606 0.632205 3.83299C1.0234 2.99993 1.58284 2.25688 2.27531 1.65065C2.96778 1.04442 3.77827 0.588128 4.65574 0.310518C5.53322 0.0329069 6.45867 -0.0600117 7.37382 0.0376116C8.28897 0.135235 9.17399 0.421286 9.97316 0.877752C10.7723 1.33422 11.4683 1.95121 12.0173 2.68988C12.5687 1.95657 13.2655 1.34497 14.0641 0.893349C14.8627 0.441728 15.746 0.159809 16.6586 0.0652364C17.5712 -0.0293363 18.4934 0.0654737 19.3677 0.343732C20.2419 0.621991 21.0494 1.07771 21.7394 1.68236C22.4294 2.28701 22.9872 3.02759 23.3779 3.85773C23.7685 4.68788 23.9837 5.58972 24.0097 6.50682C24.0358 7.42392 23.8723 8.33653 23.5295 9.18754C23.1867 10.0386 22.6719 10.8096 22.0173 11.4525" fill="#FF0000"/>
</svg>
