<svg width="38" height="24" viewBox="0 0 38 24" fill="none" xmlns="http://www.w3.org/2000/svg">
<path d="M24.1272 2.55469H13.8438V21.3356H24.1272V2.55469Z" fill="#FF5A00"/>
<path d="M14.5276 11.9459C14.5276 8.13015 16.2922 4.74356 19 2.55541C17.0072 0.962629 14.4934 0 11.7514 0C5.2558 0 0 5.34278 0 11.9459C0 18.549 5.2558 23.8918 11.7514 23.8918C14.4934 23.8918 17.0072 22.9291 19 21.3363C16.2884 19.1791 14.5276 15.7616 14.5276 11.9459Z" fill="#EB001B"/>
<path d="M38 11.9459C38 18.549 32.7442 23.8918 26.2486 23.8918C23.5066 23.8918 20.9928 22.9291 19 21.3363C21.742 19.1443 23.4724 15.7616 23.4724 11.9459C23.4724 8.13015 21.7078 4.74356 19 2.55541C20.989 0.962629 23.5028 0 26.2448 0C32.7442 0 38 5.37758 38 11.9459Z" fill="#F79E1B"/>
</svg>
