<svg width="90" height="24" viewBox="0 0 90 24" fill="none" xmlns="http://www.w3.org/2000/svg">
<path d="M33.5331 4.91016H28.5693C28.2296 4.91016 27.9408 5.15743 27.8878 5.49343L25.8802 18.2476C25.8403 18.4992 26.0348 18.7262 26.2896 18.7262H28.6593C28.999 18.7262 29.2879 18.4789 29.3409 18.1422L29.8823 14.7022C29.9346 14.3654 30.2242 14.1182 30.5631 14.1182H32.1345C35.4042 14.1182 37.2913 12.5327 37.7842 9.39088C38.0063 8.01634 37.7936 6.93634 37.1513 6.17997C36.4458 5.34943 35.1945 4.91016 33.5331 4.91016ZM34.1058 9.56834C33.8343 11.3531 32.4734 11.3531 31.1576 11.3531H30.4085L30.934 8.01997C30.9652 7.81852 31.1394 7.67016 31.3426 7.67016H31.6859C32.5823 7.67016 33.4279 7.67016 33.8648 8.18216C34.1254 8.48761 34.2052 8.94143 34.1058 9.56834Z" fill="#253B80"/>
<path d="M48.3755 9.50916H45.9985C45.796 9.50916 45.6211 9.65752 45.5899 9.85897L45.4846 10.5252L45.3184 10.2837C44.8038 9.53534 43.6563 9.28516 42.511 9.28516C39.8843 9.28516 37.6409 11.2786 37.2039 14.075C36.9767 15.4699 37.2997 16.8037 38.0894 17.7339C38.8138 18.5892 39.8502 18.9455 41.0834 18.9455C43.1998 18.9455 44.3734 17.5819 44.3734 17.5819L44.2675 18.2437C44.2276 18.4968 44.4221 18.7237 44.6754 18.7237H46.8165C47.1569 18.7237 47.4443 18.4764 47.498 18.1397L48.7827 9.9877C48.8234 9.73679 48.6296 9.50916 48.3755 9.50916ZM45.0622 14.1448C44.8329 15.5055 43.7551 16.419 42.3804 16.419C41.6901 16.419 41.1385 16.1972 40.7843 15.7768C40.433 15.3593 40.2995 14.7652 40.4113 14.1033C40.6254 12.7542 41.7213 11.811 43.075 11.811C43.75 11.811 44.2987 12.0357 44.6601 12.4597C45.0223 12.8881 45.166 13.4859 45.0622 14.1448Z" fill="#253B80"/>
<path d="M61.0357 9.50781H58.6471C58.4192 9.50781 58.2051 9.62127 58.0759 9.81109L54.7815 14.6736L53.385 10.0009C53.2972 9.70854 53.0279 9.50781 52.7231 9.50781H50.3758C50.0906 9.50781 49.8924 9.78709 49.9832 10.0562L52.6142 17.7929L50.1407 21.2918C49.9461 21.5674 50.1421 21.9464 50.4782 21.9464H52.8639C53.0903 21.9464 53.3023 21.8358 53.4307 21.6496L61.3754 10.1587C61.5656 9.88381 61.3703 9.50781 61.0357 9.50781Z" fill="#253B80"/>
<path d="M68.9394 4.91016H63.9749C63.6359 4.91016 63.347 5.15743 63.294 5.49343L61.2865 18.2476C61.2465 18.4992 61.4411 18.7262 61.6944 18.7262H64.2419C64.4786 18.7262 64.6811 18.5531 64.7181 18.3174L65.2878 14.7022C65.3401 14.3654 65.6297 14.1182 65.9686 14.1182H67.5393C70.8098 14.1182 72.6961 12.5327 73.1897 9.39088C73.4125 8.01634 73.1984 6.93634 72.5561 6.17997C71.8513 5.34943 70.6007 4.91016 68.9394 4.91016ZM69.512 9.56834C69.2413 11.3531 67.8804 11.3531 66.5638 11.3531H65.8155L66.3417 8.01997C66.3729 7.81852 66.5457 7.67016 66.7496 7.67016H67.0929C67.9886 7.67016 68.8348 7.67016 69.2718 8.18216C69.5323 8.48761 69.6115 8.94143 69.512 9.56834Z" fill="#179BD7"/>
<path d="M83.7787 9.50916H81.4031C81.1992 9.50916 81.0257 9.65752 80.9952 9.85897L80.89 10.5252L80.723 10.2837C80.2084 9.53534 79.0617 9.28516 77.9163 9.28516C75.2896 9.28516 73.0469 11.2786 72.61 14.075C72.3835 15.4699 72.705 16.8037 73.4947 17.7339C74.2205 18.5892 75.2555 18.9455 76.4887 18.9455C78.6051 18.9455 79.7788 17.5819 79.7788 17.5819L79.6728 18.2437C79.6329 18.4968 79.8274 18.7237 80.0822 18.7237H82.2226C82.5615 18.7237 82.8504 18.4764 82.9034 18.1397L84.1888 9.9877C84.228 9.73679 84.0334 9.50916 83.7787 9.50916ZM80.4654 14.1448C80.2375 15.5055 79.1582 16.419 77.7835 16.419C77.0947 16.419 76.5417 16.1972 76.1875 15.7768C75.8362 15.3593 75.7041 14.7652 75.8144 14.1033C76.03 12.7542 77.1245 11.811 78.4781 11.811C79.1531 11.811 79.7018 12.0357 80.0633 12.4597C80.4269 12.8881 80.5706 13.4859 80.4654 14.1448Z" fill="#179BD7"/>
<path d="M86.5894 5.2568L84.5521 18.2444C84.5122 18.4961 84.7067 18.723 84.96 18.723H87.0082C87.3486 18.723 87.6375 18.4757 87.6897 18.139L89.6988 5.38552C89.7387 5.13389 89.5442 4.90625 89.2909 4.90625H86.9973C86.7948 4.90698 86.6206 5.05534 86.5894 5.2568Z" fill="#179BD7"/>
<path d="M5.26925 21.2043L5.64885 18.7883L4.80329 18.7686H0.765625L3.57159 0.941003C3.5803 0.887185 3.60861 0.837003 3.64998 0.801366C3.69135 0.76573 3.74433 0.746094 3.7995 0.746094H10.6076C12.8677 0.746094 14.4275 1.21737 15.2418 2.14755C15.6236 2.58391 15.8668 3.03991 15.9843 3.54173C16.1077 4.06828 16.1099 4.69737 15.9894 5.46464L15.9807 5.52064V6.01228L16.3625 6.229C16.684 6.39991 16.9395 6.59555 17.1355 6.81955C17.4621 7.19264 17.6733 7.66682 17.7626 8.229C17.8547 8.80718 17.8243 9.49518 17.6733 10.2741C17.4991 11.1701 17.2175 11.9505 16.8372 12.589C16.4873 13.1774 16.0417 13.6654 15.5126 14.0435C15.0074 14.4028 14.4072 14.6755 13.7285 14.8501C13.0709 15.0217 12.3212 15.1083 11.4989 15.1083H10.969C10.5901 15.1083 10.2222 15.245 9.93329 15.4901C9.64369 15.7403 9.45208 16.0821 9.39329 16.4559L9.35337 16.6734L8.68272 20.9315L8.65224 21.0879C8.64425 21.1374 8.63046 21.1621 8.61014 21.1788C8.592 21.1941 8.56587 21.2043 8.54046 21.2043H5.26925Z" fill="#253B80"/>
<path d="M16.729 5.57812C16.7087 5.70831 16.6855 5.8414 16.6594 5.97813C15.7615 10.597 12.6899 12.1927 8.76695 12.1927H6.76953C6.28977 12.1927 5.88549 12.5418 5.81074 13.0159L4.78807 19.5149L4.49848 21.357C4.44985 21.6683 4.68937 21.949 5.00291 21.949H8.54557C8.96509 21.949 9.32146 21.6436 9.38751 21.229L9.42235 21.0487L10.0894 16.8072L10.1322 16.5745C10.1975 16.1585 10.5546 15.853 10.9741 15.853H11.504C14.9363 15.853 17.6232 14.4567 18.4086 10.4159C18.7366 8.72794 18.5668 7.31849 17.6987 6.32722C17.436 6.02831 17.1101 5.78031 16.729 5.57812Z" fill="#179BD7"/>
<path d="M15.7916 5.20182C15.6544 5.16182 15.5129 5.12545 15.3677 5.09272C15.2219 5.06072 15.0723 5.03236 14.9185 5.00763C14.3799 4.92036 13.7898 4.87891 13.1577 4.87891H7.82153C7.69016 4.87891 7.56532 4.90872 7.45355 4.96254C7.2075 5.08109 7.0246 5.31454 6.98032 5.60036L5.84516 12.8047L5.8125 13.0149C5.88726 12.5407 6.29153 12.1916 6.77129 12.1916H8.76871C12.6917 12.1916 15.7633 10.5953 16.6611 5.97709C16.688 5.84036 16.7105 5.70727 16.7308 5.57709C16.5036 5.45636 16.2576 5.35309 15.9927 5.26509C15.9273 5.24327 15.8598 5.22218 15.7916 5.20182Z" fill="#222D65"/>
<path d="M6.9779 5.59927C7.02217 5.31345 7.20507 5.08 7.45112 4.96218C7.56362 4.90836 7.68773 4.87855 7.8191 4.87855H13.1552C13.7874 4.87855 14.3775 4.92 14.916 5.00727C15.0699 5.032 15.2194 5.06036 15.3653 5.09236C15.5105 5.12509 15.652 5.16145 15.7892 5.20145C15.8574 5.22182 15.9249 5.24291 15.991 5.264C16.2559 5.352 16.5019 5.456 16.7291 5.576C16.9962 3.86909 16.7269 2.70691 15.8059 1.65455C14.7905 0.496 12.9578 0 10.6127 0H3.80467C3.32564 0 2.91701 0.349091 2.84298 0.824L0.00724995 18.8349C-0.0486371 19.1913 0.225718 19.5127 0.584266 19.5127H4.78741L5.84273 12.8036L6.9779 5.59927Z" fill="#253B80"/>
</svg>
