<svg width="1181" height="260" viewBox="0 0 1181 260" fill="none" xmlns="http://www.w3.org/2000/svg">

<path d="M0.00355303 254.545V-0.000540257H86.0121C105.981 -0.000540257 122.305 3.60386 134.982 10.8127C147.743 17.9386 157.189 27.5918 163.32 39.7722C169.452 51.9526 172.518 65.5416 172.518 80.5392C172.518 95.5369 169.452 109.167 163.32 121.431C157.272 133.694 147.908 143.471 135.231 150.763C122.553 157.972 106.313 161.576 86.5092 161.576H24.8615V134.232H85.5149C99.1868 134.232 110.166 131.871 118.452 127.148C126.738 122.425 132.745 116.045 136.474 108.007C140.285 99.887 142.191 90.731 142.191 80.5392C142.191 70.3475 140.285 61.2329 136.474 53.1955C132.745 45.1581 126.696 38.8607 118.327 34.3034C109.959 29.6633 98.8554 27.3432 85.0178 27.3432H30.8274V254.545H0.00355303ZM382.217 -0.000540257H413.041V168.536C413.041 185.937 408.939 201.473 400.736 215.145C392.616 228.734 381.14 239.464 366.308 247.336C351.476 255.125 334.075 259.019 314.106 259.019C294.137 259.019 276.736 255.125 261.904 247.336C247.073 239.464 235.555 228.734 227.352 215.145C219.232 201.473 215.172 185.937 215.172 168.536V-0.000540257H245.995V166.051C245.995 178.48 248.73 189.541 254.199 199.236C259.667 208.848 267.456 216.429 277.565 221.981C287.757 227.45 299.937 230.184 314.106 230.184C328.275 230.184 340.456 227.45 350.647 221.981C360.839 216.429 368.628 208.848 374.014 199.236C379.483 189.541 382.217 178.48 382.217 166.051V-0.000540257ZM467.595 254.545V-0.000540257H553.604C573.49 -0.000540257 589.814 3.39671 602.574 10.1912C615.334 16.9029 624.78 26.1417 630.912 37.9078C637.044 49.6739 640.11 63.0558 640.11 78.0534C640.11 93.0511 637.044 106.35 630.912 117.95C624.78 129.551 615.376 138.665 602.698 145.294C590.021 151.84 573.822 155.113 554.101 155.113H484.499V127.272H553.107C566.696 127.272 577.633 125.284 585.919 121.306C594.288 117.329 600.337 111.695 604.066 104.403C607.877 97.0283 609.783 88.2452 609.783 78.0534C609.783 67.8617 607.877 58.9542 604.066 51.3311C600.254 43.708 594.164 37.825 585.795 33.682C577.426 29.4561 566.364 27.3432 552.61 27.3432H498.419V254.545H467.595ZM587.411 140.198L650.053 254.545H614.257L552.61 140.198H587.411ZM715.296 -0.000540257V254.545H684.472V-0.000540257H715.296ZM756.179 27.3432V-0.000540257H947.088V27.3432H867.045V254.545H836.221V27.3432H756.179ZM965.785 -0.000540257H1001.08L1071.68 118.82H1074.66L1145.26 -0.000540257H1180.56L1088.58 149.644V254.545H1057.76V149.644L965.785 -0.000540257Z" fill="#222222"/>

</svg>
