<svg width="74" height="24" viewBox="0 0 74 24" fill="none" xmlns="http://www.w3.org/2000/svg">
<path d="M48.1511 0C42.9022 0 38.2114 2.718 38.2114 7.73857C38.2114 13.4969 46.5305 13.8945 46.5305 16.7877C46.5305 18.0059 45.1333 19.0962 42.7461 19.0962C39.3591 19.0962 36.8276 17.5727 36.8276 17.5727L35.7442 22.6399C35.7442 22.6399 38.6606 23.9268 42.5322 23.9268C48.2709 23.9268 52.7872 21.0758 52.7872 15.9687C52.7872 9.8837 44.4333 9.49784 44.4333 6.81311C44.4333 5.85881 45.5803 4.8136 47.9601 4.8136C50.6456 4.8136 52.836 5.92165 52.836 5.92165L53.8964 1.02821C53.8964 1.02821 51.5121 0 48.1503 0H48.1511ZM0.12728 0.369595L0 1.10804C0 1.10804 2.20816 1.51164 4.19728 2.31736C6.75842 3.24061 6.94046 3.77874 7.37188 5.44783L12.0716 23.5454H18.372L28.0778 0.369595H21.7923L15.5555 16.1269L13.0107 2.76974C12.7776 1.2411 11.5951 0.368855 10.1484 0.368855H0.12802L0.12728 0.369595ZM30.6057 0.369595L25.675 23.5454H31.669L36.5819 0.369595H30.6057ZM64.0359 0.369595C62.5907 0.369595 61.8248 1.14279 61.2631 2.49329L52.4815 23.5454H58.7671L59.9829 20.0365H67.6404L68.3797 23.5454H73.926L69.0879 0.369595H64.0359ZM64.8536 6.63127L66.7169 15.3278H61.7256L64.8543 6.63127H64.8536Z" fill="#1434CB"/>
</svg>
